<?xml version="1.0" encoding="utf-8"?>
<!-- Generator: Adobe Illustrator 22.0.1, SVG Export Plug-In . SVG Version: 6.00 Build 0)  -->
<svg version="1.1" id="Ebene_2" xmlns="http://www.w3.org/2000/svg" xmlns:xlink="http://www.w3.org/1999/xlink" x="0px" y="0px"
	 viewBox="0 0 300 300" style="enable-background:new 0 0 300 300;" xml:space="preserve">
<style type="text/css">
	.st0{fill:#006699;}
	.st1{fill:#FFFFFF;}
	.st2{fill:none;}
	.st3{fill:#FCFCFC;}
</style>
<g>
	<path class="st0" d="M33.6,299.5c-18.3,0-33.1-14.9-33.1-33.1V33.6c0-18.3,14.9-33.1,33.1-33.1h232.7c18.3,0,33.1,14.9,33.1,33.1
		v232.7c0,18.3-14.9,33.1-33.1,33.1H33.6z"/>
	<path class="st1" d="M266.4,1c18,0,32.6,14.6,32.6,32.6v232.7c0,18-14.6,32.6-32.6,32.6H33.6C15.6,299,1,284.4,1,266.4V33.6
		C1,15.6,15.6,1,33.6,1H266.4 M266.4,0H33.6C15.1,0,0,15.1,0,33.6v232.7C0,284.9,15.1,300,33.6,300h232.7
		c18.6,0,33.6-15.1,33.6-33.6V33.6C300,15.1,284.9,0,266.4,0L266.4,0z"/>
</g>
<g>
	<rect x="41.3" y="114" class="st2" width="623.6" height="210.6"/>
	<path class="st3" d="M43.5,142.1c0-2.2,0.4-4.3,1.1-6.2c0.8-2,1.8-3.7,3.2-5.1c1.4-1.5,3.1-2.6,5-3.5c1.9-0.9,4.1-1.3,6.5-1.3
		c3.1,0,5.8,0.7,8.1,2.1c2.3,1.4,4,3.2,5.1,5.5l-5.2,1.6c-0.8-1.5-1.9-2.6-3.4-3.4c-1.4-0.8-3-1.2-4.8-1.2c-1.4,0-2.8,0.3-4.1,0.9
		c-1.3,0.6-2.4,1.4-3.3,2.4c-0.9,1-1.6,2.3-2.2,3.7c-0.5,1.4-0.8,2.9-0.8,4.6c0,1.6,0.3,3.2,0.8,4.6c0.6,1.4,1.3,2.7,2.2,3.8
		c0.9,1.1,2,1.9,3.3,2.5c1.3,0.6,2.6,0.9,4,0.9c0.9,0,1.8-0.1,2.7-0.4c0.9-0.3,1.7-0.6,2.5-1c0.7-0.4,1.4-1,2-1.5
		c0.6-0.6,1-1.2,1.2-1.9l5.2,1.6c-0.5,1.2-1.2,2.2-2,3.2c-0.9,1-1.9,1.8-3,2.5c-1.2,0.7-2.5,1.2-3.9,1.6c-1.4,0.4-2.9,0.6-4.5,0.6
		c-2.4,0-4.5-0.4-6.5-1.3c-2-0.9-3.6-2.1-5-3.5c-1.4-1.5-2.5-3.2-3.3-5.2C43.9,146.4,43.5,144.3,43.5,142.1z"/>
	<path class="st3" d="M88.5,158.4c-3.3,0-5.8-1.1-7.4-3.3c-1.7-2.2-2.5-5.5-2.5-9.8v-18.8h5.3v17.8c0,6.4,2.2,9.6,6.7,9.6
		c2.2,0,4.2-0.7,6.1-2.1c1.9-1.4,3.3-3.3,4.2-5.7v-19.6h5.3v24.8c0,1.2,0.6,1.9,1.7,1.9v4.6c-0.6,0.1-1.1,0.1-1.4,0.2
		c-0.3,0-0.7,0-1,0c-1,0-1.9-0.3-2.6-0.9c-0.7-0.6-1.1-1.4-1.1-2.3l-0.1-3.7c-1.4,2.4-3.2,4.2-5.5,5.4
		C93.7,157.8,91.2,158.4,88.5,158.4z"/>
	<path class="st3" d="M131.5,131.1c-2.6,0.1-5,0.8-7,2c-2,1.3-3.5,3.1-4.3,5.3v19.3h-5.3v-31.3h4.9v7.3c1.1-2.2,2.5-3.9,4.3-5.2
		c1.8-1.3,3.6-2.1,5.6-2.2c0.4,0,0.7,0,1,0c0.3,0,0.5,0,0.7,0.1V131.1z"/>
</g>
<g>
	<rect x="134.7" y="127.7" class="st2" width="338.2" height="89.4"/>
	<path class="st3" d="M148.1,171.5l-12.4-31.3h5.5l9.9,26.7l10-26.7h5l-12.4,31.3H148.1z"/>
	<path class="st3" d="M184.1,172.1c-2.4,0-4.5-0.4-6.5-1.3c-2-0.9-3.6-2-5-3.5c-1.4-1.5-2.5-3.2-3.3-5.2c-0.8-2-1.2-4.1-1.2-6.3
		c0-2.2,0.4-4.3,1.2-6.2c0.8-2,1.9-3.7,3.3-5.2s3.1-2.6,5.1-3.5c2-0.9,4.1-1.3,6.5-1.3c2.4,0,4.5,0.4,6.4,1.3c1.9,0.9,3.6,2.1,5,3.5
		c1.4,1.5,2.4,3.2,3.2,5.1c0.7,1.9,1.1,4,1.1,6c0,0.4,0,0.8,0,1.2c0,0.4-0.1,0.6-0.1,0.8h-26c0.1,1.6,0.5,3,1.1,4.3s1.4,2.4,2.3,3.3
		c1,0.9,2,1.6,3.3,2.2c1.2,0.5,2.5,0.8,3.9,0.8c1,0,1.9-0.1,2.8-0.4c0.9-0.3,1.8-0.6,2.6-1c0.8-0.4,1.5-1,2.1-1.6
		c0.6-0.6,1.1-1.4,1.4-2.2l4.6,1.3c-0.5,1.2-1.2,2.2-2.1,3.2c-0.9,1-1.9,1.8-3.1,2.5c-1.2,0.7-2.5,1.3-3.9,1.7
		C187.1,171.9,185.6,172.1,184.1,172.1z M194.8,153.7c-0.1-1.5-0.5-2.9-1.1-4.1s-1.4-2.3-2.3-3.2c-0.9-0.9-2-1.6-3.3-2.1
		c-1.2-0.5-2.6-0.8-4-0.8c-1.4,0-2.7,0.3-4,0.8c-1.2,0.5-2.3,1.2-3.3,2.1c-0.9,0.9-1.7,2-2.3,3.2c-0.6,1.2-0.9,2.6-1,4.1H194.8z"/>
	<path class="st3" d="M222.2,144.8c-2.6,0.1-5,0.8-7,2c-2,1.3-3.5,3.1-4.3,5.3v19.3h-5.3v-31.3h4.9v7.3c1.1-2.2,2.5-3.9,4.3-5.2
		c1.8-1.3,3.6-2.1,5.6-2.2c0.4,0,0.7,0,1,0c0.3,0,0.5,0,0.7,0.1V144.8z"/>
	<path class="st3" d="M243.6,169.9c-0.3,0.2-0.7,0.4-1.3,0.6c-0.5,0.2-1.1,0.4-1.8,0.7c-0.7,0.2-1.4,0.4-2.2,0.5
		c-0.8,0.1-1.6,0.2-2.4,0.2c-1.9,0-3.6-0.5-5-1.6c-1.4-1.1-2.1-2.7-2.1-5v-21.1h-4.3v-4.1h4.3v-10.4h5.3v10.4h7v4.1h-7v19.4
		c0.1,1.2,0.5,2,1.1,2.5c0.7,0.5,1.5,0.8,2.4,0.8c1,0,2-0.2,2.8-0.5c0.9-0.3,1.4-0.6,1.8-0.8L243.6,169.9z"/>
</g>
<g>
	<rect x="112.7" y="158.2" class="st2" width="124.4" height="57.7"/>
	<path class="st3" d="M113.4,166.6c0-0.7,0.1-1.3,0.3-1.9s0.5-1.1,1-1.5c0.4-0.4,0.9-0.8,1.5-1c0.6-0.3,1.2-0.4,1.9-0.4
		c0.9,0,1.7,0.2,2.3,0.6c0.7,0.4,1.2,0.9,1.5,1.6l-1.2,0.4c-0.3-0.5-0.6-0.9-1.1-1.1c-0.5-0.3-1-0.4-1.6-0.4c-0.5,0-0.9,0.1-1.3,0.3
		c-0.4,0.2-0.8,0.5-1.1,0.8c-0.3,0.3-0.5,0.7-0.7,1.2c-0.2,0.5-0.3,1-0.3,1.5c0,0.5,0.1,1,0.3,1.5c0.2,0.5,0.4,0.9,0.7,1.2
		c0.3,0.3,0.7,0.6,1.1,0.8s0.9,0.3,1.3,0.3c0.3,0,0.6,0,0.9-0.1s0.6-0.2,0.8-0.4c0.3-0.2,0.5-0.3,0.6-0.5c0.2-0.2,0.3-0.4,0.4-0.6
		l1.2,0.4c-0.1,0.3-0.3,0.6-0.6,0.9c-0.3,0.3-0.5,0.5-0.9,0.7c-0.3,0.2-0.7,0.4-1.1,0.5s-0.8,0.2-1.3,0.2c-0.7,0-1.3-0.1-1.9-0.4
		c-0.6-0.3-1.1-0.6-1.5-1.1c-0.4-0.5-0.7-1-1-1.6C113.6,167.9,113.4,167.3,113.4,166.6z"/>
	<path class="st3" d="M127.9,171.5c-0.7,0-1.3-0.1-1.9-0.4c-0.6-0.3-1.1-0.6-1.5-1.1c-0.4-0.4-0.7-1-1-1.5c-0.2-0.6-0.3-1.2-0.3-1.9
		c0-0.7,0.1-1.3,0.4-1.9c0.2-0.6,0.6-1.1,1-1.5s0.9-0.8,1.5-1.1c0.6-0.3,1.2-0.4,1.9-0.4c0.7,0,1.3,0.1,1.9,0.4
		c0.6,0.3,1.1,0.6,1.5,1.1s0.7,1,1,1.5c0.2,0.6,0.4,1.2,0.4,1.9c0,0.6-0.1,1.3-0.3,1.9c-0.2,0.6-0.5,1.1-1,1.5
		c-0.4,0.4-0.9,0.8-1.5,1.1C129.2,171.4,128.6,171.5,127.9,171.5z M124.5,166.7c0,0.5,0.1,1,0.3,1.5c0.2,0.4,0.4,0.8,0.7,1.2
		c0.3,0.3,0.7,0.6,1.1,0.8c0.4,0.2,0.9,0.3,1.3,0.3c0.5,0,0.9-0.1,1.3-0.3s0.8-0.5,1.1-0.8c0.3-0.3,0.6-0.7,0.7-1.2
		c0.2-0.5,0.3-0.9,0.3-1.5c0-0.5-0.1-1-0.3-1.5c-0.2-0.5-0.4-0.9-0.7-1.2s-0.7-0.6-1.1-0.8s-0.9-0.3-1.3-0.3c-0.5,0-0.9,0.1-1.3,0.3
		c-0.4,0.2-0.8,0.5-1.1,0.8c-0.3,0.3-0.6,0.8-0.7,1.2C124.6,165.7,124.5,166.2,124.5,166.7z"/>
	<path class="st3" d="M142.5,171.4h-1.2v-5.2c0-1.1-0.2-1.9-0.5-2.4c-0.3-0.5-0.8-0.8-1.5-0.8c-0.4,0-0.7,0.1-1.1,0.2
		c-0.4,0.1-0.7,0.3-1,0.6s-0.6,0.5-0.8,0.9c-0.2,0.3-0.4,0.7-0.5,1.1v5.7h-1.2V162h1.1v2.1c0.4-0.7,0.9-1.2,1.6-1.7s1.5-0.6,2.3-0.6
		c0.5,0,1,0.1,1.3,0.3c0.4,0.2,0.6,0.5,0.9,0.8c0.2,0.3,0.4,0.8,0.5,1.3s0.1,1.1,0.1,1.7V171.4z"/>
</g>
<g>
	<rect x="133.3" y="122.4" class="st2" width="139" height="26.8"/>
	<path class="st3" d="M139.4,127.3c-0.8,0-1.5,0.3-2.2,0.7c-0.6,0.4-1,1-1.3,1.8v5.8h-1.2v-9.4h1.2v2.2c0.3-0.7,0.8-1.3,1.4-1.7
		c0.6-0.4,1.2-0.6,1.9-0.6c0.1,0,0.2,0,0.2,0V127.3z"/>
	<path class="st3" d="M144.6,135.7c-0.7,0-1.3-0.1-1.9-0.4c-0.6-0.3-1.1-0.6-1.5-1.1c-0.4-0.5-0.7-1-1-1.6c-0.2-0.6-0.4-1.2-0.4-1.9
		c0-0.7,0.1-1.3,0.4-1.9c0.2-0.6,0.6-1.1,1-1.5s0.9-0.8,1.5-1c0.6-0.3,1.2-0.4,1.9-0.4c0.7,0,1.3,0.1,1.9,0.4
		c0.6,0.3,1.1,0.6,1.5,1.1c0.4,0.4,0.7,1,1,1.5c0.2,0.6,0.3,1.2,0.3,1.8c0,0.1,0,0.2,0,0.3s0,0.2,0,0.2h-8c0,0.5,0.2,1,0.4,1.4
		c0.2,0.4,0.5,0.8,0.8,1.1c0.3,0.3,0.7,0.6,1.1,0.7c0.4,0.2,0.8,0.3,1.3,0.3c0.3,0,0.6,0,0.9-0.1c0.3-0.1,0.6-0.2,0.8-0.3
		s0.5-0.3,0.7-0.5c0.2-0.2,0.4-0.4,0.5-0.7l1.1,0.3c-0.1,0.3-0.3,0.7-0.6,0.9c-0.3,0.3-0.6,0.5-0.9,0.7c-0.3,0.2-0.7,0.4-1.2,0.5
		C145.5,135.7,145.1,135.7,144.6,135.7z M148.1,130.4c0-0.5-0.2-1-0.4-1.4c-0.2-0.4-0.4-0.8-0.8-1.1s-0.7-0.5-1.1-0.7
		c-0.4-0.2-0.8-0.3-1.3-0.3s-0.9,0.1-1.3,0.3c-0.4,0.2-0.8,0.4-1.1,0.7c-0.3,0.3-0.6,0.7-0.7,1.1s-0.3,0.9-0.3,1.4H148.1z"/>
	<path class="st3" d="M159,135.6h-1.2v-5.2c0-1.1-0.2-1.9-0.5-2.4s-0.8-0.8-1.5-0.8c-0.4,0-0.7,0.1-1.1,0.2c-0.4,0.1-0.7,0.3-1,0.6
		c-0.3,0.2-0.6,0.5-0.8,0.9s-0.4,0.7-0.5,1.1v5.7h-1.2v-9.4h1.1v2.1c0.4-0.7,0.9-1.2,1.6-1.7c0.7-0.4,1.5-0.6,2.3-0.6
		c0.5,0,1,0.1,1.3,0.3s0.6,0.5,0.9,0.8c0.2,0.3,0.4,0.8,0.5,1.3c0.1,0.5,0.1,1.1,0.1,1.7V135.6z"/>
	<path class="st3" d="M161,130.8c0-0.7,0.1-1.3,0.3-1.9c0.2-0.6,0.5-1.1,1-1.5s0.9-0.8,1.5-1s1.2-0.4,1.9-0.4c0.9,0,1.7,0.2,2.3,0.6
		c0.7,0.4,1.2,0.9,1.5,1.6l-1.2,0.4c-0.3-0.5-0.6-0.9-1.1-1.1c-0.5-0.3-1-0.4-1.6-0.4c-0.5,0-0.9,0.1-1.3,0.3s-0.8,0.5-1.1,0.8
		c-0.3,0.3-0.5,0.7-0.7,1.2s-0.3,1-0.3,1.5c0,0.5,0.1,1,0.3,1.5c0.2,0.5,0.4,0.9,0.7,1.2c0.3,0.3,0.7,0.6,1.1,0.8
		c0.4,0.2,0.9,0.3,1.3,0.3c0.3,0,0.6,0,0.9-0.1s0.6-0.2,0.8-0.4s0.5-0.3,0.6-0.5c0.2-0.2,0.3-0.4,0.4-0.6l1.2,0.4
		c-0.1,0.3-0.3,0.6-0.6,0.9s-0.5,0.5-0.9,0.7c-0.3,0.2-0.7,0.4-1.1,0.5c-0.4,0.1-0.8,0.2-1.3,0.2c-0.7,0-1.3-0.1-1.9-0.4
		s-1.1-0.6-1.5-1.1s-0.7-1-1-1.6C161.1,132.1,161,131.5,161,130.8z"/>
	<path class="st3" d="M171.9,138.4c0.1,0,0.2,0,0.3,0c0.1,0,0.2,0,0.3,0c0.2,0,0.4,0,0.5-0.1c0.1-0.1,0.2-0.2,0.4-0.4
		c0.1-0.2,0.3-0.5,0.4-0.9c0.2-0.4,0.4-0.9,0.6-1.5l-4.1-9.4h1.3l3.5,8.2l3.2-8.2h1.2l-4.9,12.1c-0.1,0.3-0.4,0.7-0.7,0.9
		c-0.3,0.3-0.7,0.4-1.3,0.4c-0.1,0-0.2,0-0.3,0c-0.1,0-0.2,0-0.4,0V138.4z"/>
</g>
<g>
</g>
<g>
</g>
<g>
</g>
<g>
</g>
<g>
</g>
<g>
</g>
<g>
</g>
<g>
</g>
<g>
</g>
<g>
</g>
<g>
</g>
<g>
</g>
<g>
</g>
<g>
</g>
<g>
</g>
</svg>
